<?xml version="1.0" encoding="UTF-8"?> <svg xmlns="http://www.w3.org/2000/svg" width="120" height="32" viewBox="0 0 120 32" fill="none"><g clip-path="url(#clip0_12877_107424)"><path d="M95.8052 22.1472C95.6052 22.1472 95.4718 22.0125 95.4718 21.8103V13.5448H94.1827C93.9827 13.5448 93.8494 13.41 93.8494 13.2079V11.4784C93.8494 11.2763 93.9827 11.1415 94.1827 11.1415H95.4718V9.43452C95.4718 6.87401 96.872 5.72852 99.2057 5.72852C99.828 5.72852 100.295 5.77344 100.873 6.06542C101.006 6.13281 101.073 6.26757 101.073 6.40233V8.44625C101.073 8.60347 100.939 8.62593 100.784 8.60347C100.428 8.53609 100.139 8.49117 99.8946 8.49117C98.8056 8.49117 98.5611 9.05269 98.5611 9.86127V11.1415H100.739C100.939 11.1415 101.073 11.2763 101.073 11.4784V13.2079C101.073 13.41 100.939 13.5448 100.739 13.5448H98.5611V21.8103C98.5611 22.0125 98.4278 22.1472 98.2277 22.1472H95.8052Z" fill="white"></path><path d="M29.4701 19.9685C30.3813 21.2263 32.0927 22.4168 34.5152 22.4168C37.16 22.4168 39.7159 20.9568 39.7159 17.7899C39.7159 15.1395 37.9379 14.0839 36.2488 13.2753L34.6486 12.5341C33.4484 11.9726 32.8261 11.6132 32.8261 10.6923C32.8261 9.74896 33.5373 9.18745 34.6708 9.18745C35.6487 9.18745 36.4266 9.6142 37.3823 10.4677C37.5601 10.6025 37.7379 10.5575 37.8712 10.3779L39.1381 8.82808C39.2714 8.6484 39.2714 8.46871 39.1159 8.31148C37.8935 6.98631 36.4044 6.24511 34.5597 6.24511C31.9149 6.24511 29.759 7.81735 29.759 10.6698C29.759 13.0058 31.2259 14.1962 32.8706 14.9598L34.7597 15.8583C35.8487 16.3524 36.6266 16.7342 36.6266 17.7899C36.6266 18.9129 35.7598 19.4744 34.4486 19.4744C33.1817 19.4744 32.2927 18.9354 31.3148 17.9246C31.137 17.7674 30.9592 17.7899 30.8036 17.9695L29.5145 19.4744C29.359 19.6541 29.359 19.8113 29.4701 19.9685Z" fill="white"></path><path d="M41.8871 7.45798C41.8871 8.42379 42.6205 9.18745 43.5984 9.18745C44.5763 9.18745 45.2876 8.42379 45.2876 7.45798C45.2876 6.51464 44.5763 5.75098 43.5984 5.75098C42.6205 5.75098 41.8871 6.51464 41.8871 7.45798Z" fill="white"></path><path d="M42.0427 11.4784V21.8103C42.0427 22.0125 42.176 22.1472 42.376 22.1472H44.7986C44.9986 22.1472 45.132 22.0125 45.132 21.8103V11.4784C45.132 11.2763 44.9986 11.1415 44.7986 11.1415H42.376C42.176 11.1415 42.0427 11.2763 42.0427 11.4784Z" fill="white"></path><path d="M47.7938 21.8103C47.7938 22.0125 47.9272 22.1472 48.1272 22.1472H50.5275C50.7275 22.1472 50.8609 22.0125 50.8609 21.8103V16.0379C50.8609 14.5331 51.5277 13.7245 52.6834 13.7245C53.8613 13.7245 54.4169 14.5331 54.4169 16.0379V21.8103C54.4169 22.0125 54.5503 22.1472 54.7725 22.1472H57.1506C57.3507 22.1472 57.484 22.0125 57.484 21.8103V16.0379C57.484 14.5331 58.1508 13.7245 59.3065 13.7245C60.5067 13.7245 61.0401 14.5331 61.0401 16.0379V21.8103C61.0401 22.0125 61.1734 22.1472 61.3735 22.1472H63.7738C63.9738 22.1472 64.1072 22.0125 64.1072 21.8103V15.3641C64.1072 12.4892 62.6847 10.872 60.3511 10.872C58.662 10.872 57.5952 11.703 56.9951 12.8261C56.395 11.5458 55.306 10.872 53.9058 10.872C52.4167 10.872 51.4387 11.6357 50.8387 12.6688L50.772 11.5009C50.772 11.2314 50.6386 11.1415 50.4386 11.1415H48.1272C47.9272 11.1415 47.7938 11.2763 47.7938 11.4784V21.8103Z" fill="white"></path><path fill-rule="evenodd" clip-rule="evenodd" d="M66.72 26.0778C66.72 26.28 66.8534 26.4147 67.0534 26.4147H69.476C69.676 26.4147 69.8093 26.28 69.8093 26.0778V20.8445C70.565 21.8328 71.6985 22.4168 73.1876 22.4168C76.2325 22.4168 78.3439 19.9236 78.3439 16.6444C78.3439 13.3876 76.2325 10.872 73.1876 10.872C71.5207 10.872 70.365 11.5458 69.6315 12.6913L69.5871 11.4784C69.5871 11.2763 69.4537 11.1415 69.2537 11.1415H67.0534C66.8534 11.1415 66.72 11.2763 66.72 11.4784V26.0778ZM72.5431 19.5867C70.8984 19.5867 69.7649 18.4188 69.7649 16.6444C69.7649 14.87 70.8984 13.702 72.5431 13.702C74.1433 13.702 75.3434 14.8924 75.3434 16.6444C75.3434 18.4188 74.1433 19.5867 72.5431 19.5867Z" fill="white"></path><path d="M80.4372 21.8103C80.4372 22.0125 80.5706 22.1472 80.7706 22.1472H83.1931C83.3932 22.1472 83.5265 22.0125 83.5265 21.8103V6.42479C83.5265 6.22265 83.3932 6.08788 83.1931 6.08788H80.7706C80.5706 6.08788 80.4372 6.22265 80.4372 6.42479V21.8103Z" fill="white"></path><path d="M86.9743 7.45798C86.9743 8.42379 87.7078 9.18745 88.6857 9.18745C89.6636 9.18745 90.3748 8.42379 90.3748 7.45798C90.3748 6.51464 89.6636 5.75098 88.6857 5.75098C87.7078 5.75098 86.9743 6.51464 86.9743 7.45798Z" fill="white"></path><path d="M87.4633 11.1415C87.2633 11.1415 87.1299 11.2763 87.1299 11.4784V21.8103C87.1299 22.0125 87.2633 22.1472 87.4633 22.1472H89.8858C90.0859 22.1472 90.2192 22.0125 90.2192 21.8103V11.4784C90.2192 11.2763 90.0859 11.1415 89.8858 11.1415H87.4633Z" fill="white"></path><path d="M105.755 26.0329C105.644 26.28 105.777 26.4147 106.021 26.4147H108.377C108.555 26.4147 108.711 26.3249 108.777 26.1452L114.534 11.5234C114.623 11.2763 114.511 11.1415 114.267 11.1415H111.822C111.644 11.1415 111.489 11.2314 111.422 11.4111L108.844 18.5535L106.244 11.4111C106.177 11.2314 106.021 11.1415 105.844 11.1415H103.399C103.154 11.1415 103.043 11.2763 103.132 11.5234L107.333 22.1697L105.755 26.0329Z" fill="white"></path><path d="M21.5062 12.9847C20.9216 13.1279 20.3053 13.0961 19.768 12.8415C17.8876 11.9822 18.7725 9.69081 18.251 8.25869C17.2871 5.53765 14.0635 4.47152 11.2192 4.99663H11.1876C9.07011 5.41035 7.18967 6.69926 6.6208 8.86336C6.6208 8.87927 6.6208 8.89519 6.6208 8.92701C6.39958 9.86585 6.6208 10.8842 7.15807 11.664C6.71562 12.4437 6.43118 13.3348 6.36797 14.2895C6.03613 14.1145 5.72009 13.9076 5.41986 13.6689C2.18046 10.9956 2.43329 7.11299 4.37693 4.3283C4.74037 3.80319 5.18283 3.30991 5.68849 2.88027H5.70429C5.70429 2.84844 5.7359 2.83253 5.7359 2.83253C5.7359 2.83253 5.7517 2.81662 5.7675 2.81662C9.65478 -0.540914 17.0817 -1.40019 21.8223 3.23034C24.5718 5.90364 25.2513 12.0299 21.5062 13.0006V12.9847Z" fill="white"></path><path d="M11.6618 14.21C11.488 15.1329 8.81747 15.4194 6.6368 14.4328C6.54199 14.3851 6.44717 14.3532 6.36816 14.3055C6.44717 13.3507 6.71581 12.4596 7.15826 11.6799C7.31628 11.9027 7.4901 12.1096 7.69553 12.2846C7.96416 12.5233 8.2802 12.7302 8.62784 12.8575C10.0342 13.3826 11.8514 13.2712 11.6618 14.2259V14.21Z" fill="white"></path><path d="M19.7366 25.1419C16.5604 29.7088 7.69552 31.5387 2.27545 26.2558C-0.474089 23.5825 -1.15357 17.4561 2.59149 16.4855C3.17616 16.3423 3.79244 16.3741 4.3297 16.6287C6.22594 17.488 5.32523 19.7794 5.84669 21.2115C6.81061 23.9325 10.0342 24.9987 12.8786 24.4736C12.8786 24.4736 12.8786 24.4736 12.9102 24.4736C12.9102 24.4736 12.9102 24.4736 12.9418 24.4736C15.0434 24.0598 16.9239 22.7709 17.4769 20.6227C17.4769 20.6068 17.4769 20.5909 17.4769 20.5591C17.6982 19.6362 17.4769 18.6496 16.9713 17.8699C17.3979 17.0902 17.6665 16.215 17.7298 15.2602C17.7298 15.2284 17.7298 15.2125 17.7298 15.1807C18.0616 15.3557 18.3776 15.5626 18.6621 15.8013C21.9015 18.4745 21.6486 22.3572 19.705 25.1419H19.7366Z" fill="white"></path><path d="M17.7457 15.1805C17.7457 15.2123 17.7457 15.2283 17.7457 15.2601C17.6035 15.1328 17.4929 15.0691 17.4771 15.0532C17.5719 15.101 17.6667 15.1328 17.7457 15.1805Z" fill="white"></path><path d="M17.7458 15.2602C17.6826 16.199 17.414 17.0901 16.9873 17.8698C16.8293 17.6311 16.6397 17.4083 16.4185 17.2015C16.1498 16.9628 15.8338 16.7559 15.4862 16.6286C14.0798 16.1035 12.2626 16.2308 12.4522 15.2602C12.626 14.3372 15.2965 14.0508 17.4772 15.0374C17.493 15.0374 17.6036 15.117 17.7458 15.2443V15.2602Z" fill="white"></path><path d="M17.7612 14.8147C17.7612 14.942 17.7612 15.0693 17.7612 15.1806C17.7612 15.2125 17.7612 15.2284 17.7612 15.2602C17.698 16.199 17.4294 17.0901 17.0027 17.8698C16.0072 19.6839 14.1742 20.9091 12.0567 20.9091C8.89634 20.9091 6.33643 18.1881 6.33643 14.8147C6.33643 11.4412 6.33643 14.4646 6.35223 14.3055C6.43124 13.3507 6.69987 12.4596 7.14233 11.6799C8.13785 9.91361 9.97087 8.73608 12.0409 8.73608C15.2013 8.73608 17.7612 11.4571 17.7612 14.8306V14.8147Z" fill="white"></path></g><defs><clipPath id="clip0_12877_107424"><rect width="120" height="32" fill="white"></rect></clipPath></defs></svg> 